<svg width="710" height="680" viewBox="0 0 817 925" fill="none" xmlns="http://www.w3.org/2000/svg">
<path opacity="0.2" d="M9.10227 139V34.2727H50.4205C58.3295 34.2727 65.0795 35.6875 70.6705 38.517C76.2955 41.3125 80.5739 45.2841 83.5057 50.4318C86.4716 55.5455 87.9546 61.5625 87.9546 68.483C87.9546 75.4375 86.4546 81.4205 83.4546 86.4318C80.4546 91.4091 76.108 95.2273 70.4148 97.8864C64.7557 100.545 57.9034 101.875 49.858 101.875H22.1932V84.0795H46.2784C50.5057 84.0795 54.017 83.5 56.8125 82.3409C59.608 81.1818 61.6875 79.4432 63.0511 77.125C64.4489 74.8068 65.1477 71.9261 65.1477 68.483C65.1477 65.0057 64.4489 62.0739 63.0511 59.6875C61.6875 57.3011 59.5909 55.4943 56.7614 54.267C53.9659 53.0057 50.4375 52.375 46.1761 52.375H31.2443V139H9.10227ZM65.6591 91.3409L91.6875 139H67.2443L41.7784 91.3409H65.6591ZM125.202 139V34.2727H195.77V52.5284H147.344V77.483H192.14V95.7386H147.344V120.744H195.975V139H125.202ZM234.974 139V34.2727H305.542V52.5284H257.116V77.483H301.912V95.7386H257.116V120.744H305.747V139H234.974ZM344.746 139V34.2727H386.678C394.382 34.2727 400.809 35.4148 405.956 37.6989C411.104 39.983 414.973 43.1534 417.564 47.2102C420.155 51.233 421.451 55.8693 421.451 61.1193C421.451 65.2102 420.632 68.8068 418.996 71.9091C417.36 74.9773 415.11 77.5 412.246 79.4773C409.416 81.4205 406.178 82.8011 402.53 83.6193V84.642C406.519 84.8125 410.252 85.9375 413.729 88.017C417.24 90.0966 420.087 93.0114 422.269 96.7614C424.451 100.477 425.541 104.909 425.541 110.057C425.541 115.614 424.161 120.574 421.399 124.938C418.672 129.267 414.632 132.693 409.28 135.216C403.928 137.739 397.331 139 389.49 139H344.746ZM366.888 120.898H384.939C391.11 120.898 395.61 119.722 398.439 117.369C401.269 114.983 402.684 111.812 402.684 107.858C402.684 104.96 401.985 102.403 400.587 100.188C399.189 97.9716 397.195 96.233 394.604 94.9716C392.047 93.7102 388.996 93.0795 385.451 93.0795H366.888V120.898ZM366.888 78.0966H383.303C386.337 78.0966 389.03 77.5682 391.382 76.5114C393.769 75.4205 395.644 73.8864 397.007 71.9091C398.405 69.9318 399.104 67.5625 399.104 64.8011C399.104 61.017 397.757 57.9659 395.064 55.6477C392.405 53.3295 388.621 52.1704 383.712 52.1704H366.888V78.0966ZM557.788 86.6364C557.788 98.0568 555.623 107.773 551.293 115.784C546.998 123.795 541.134 129.915 533.703 134.142C526.305 138.335 517.987 140.432 508.748 140.432C499.441 140.432 491.089 138.318 483.691 134.091C476.293 129.864 470.447 123.744 466.151 115.733C461.856 107.722 459.708 98.0227 459.708 86.6364C459.708 75.2159 461.856 65.5 466.151 57.4886C470.447 49.4773 476.293 43.375 483.691 39.1818C491.089 34.9545 499.441 32.8409 508.748 32.8409C517.987 32.8409 526.305 34.9545 533.703 39.1818C541.134 43.375 546.998 49.4773 551.293 57.4886C555.623 65.5 557.788 75.2159 557.788 86.6364ZM535.339 86.6364C535.339 79.2386 534.231 73 532.015 67.9205C529.833 62.8409 526.748 58.9886 522.759 56.3636C518.771 53.7386 514.1 52.4261 508.748 52.4261C503.396 52.4261 498.725 53.7386 494.737 56.3636C490.748 58.9886 487.646 62.8409 485.43 67.9205C483.248 73 482.157 79.2386 482.157 86.6364C482.157 94.0341 483.248 100.273 485.43 105.352C487.646 110.432 490.748 114.284 494.737 116.909C498.725 119.534 503.396 120.847 508.748 120.847C514.1 120.847 518.771 119.534 522.759 116.909C526.748 114.284 529.833 110.432 532.015 105.352C534.231 100.273 535.339 94.0341 535.339 86.6364ZM595.79 139V34.2727H617.932V80.4489H619.312L657 34.2727H683.54L644.676 81.1648L684 139H657.511L628.824 95.9432L617.932 109.239V139H595.79Z" fill="white"/>
<path opacity="0.4" d="M9.10227 334V229.273H50.4205C58.3295 229.273 65.0795 230.687 70.6705 233.517C76.2955 236.312 80.5739 240.284 83.5057 245.432C86.4716 250.545 87.9546 256.562 87.9546 263.483C87.9546 270.437 86.4546 276.42 83.4546 281.432C80.4546 286.409 76.108 290.227 70.4148 292.886C64.7557 295.545 57.9034 296.875 49.858 296.875H22.1932V279.08H46.2784C50.5057 279.08 54.017 278.5 56.8125 277.341C59.608 276.182 61.6875 274.443 63.0511 272.125C64.4489 269.807 65.1477 266.926 65.1477 263.483C65.1477 260.006 64.4489 257.074 63.0511 254.688C61.6875 252.301 59.5909 250.494 56.7614 249.267C53.9659 248.006 50.4375 247.375 46.1761 247.375H31.2443V334H9.10227ZM65.6591 286.341L91.6875 334H67.2443L41.7784 286.341H65.6591ZM125.202 334V229.273H195.77V247.528H147.344V272.483H192.14V290.739H147.344V315.744H195.975V334H125.202ZM234.974 334V229.273H305.542V247.528H257.116V272.483H301.912V290.739H257.116V315.744H305.747V334H234.974ZM344.746 334V229.273H386.678C394.382 229.273 400.809 230.415 405.956 232.699C411.104 234.983 414.973 238.153 417.564 242.21C420.155 246.233 421.451 250.869 421.451 256.119C421.451 260.21 420.632 263.807 418.996 266.909C417.36 269.977 415.11 272.5 412.246 274.477C409.416 276.42 406.178 277.801 402.53 278.619V279.642C406.519 279.812 410.252 280.937 413.729 283.017C417.24 285.097 420.087 288.011 422.269 291.761C424.451 295.477 425.541 299.909 425.541 305.057C425.541 310.614 424.161 315.574 421.399 319.938C418.672 324.267 414.632 327.693 409.28 330.216C403.928 332.739 397.331 334 389.49 334H344.746ZM366.888 315.898H384.939C391.11 315.898 395.61 314.722 398.439 312.369C401.269 309.983 402.684 306.812 402.684 302.858C402.684 299.96 401.985 297.403 400.587 295.188C399.189 292.972 397.195 291.233 394.604 289.972C392.047 288.71 388.996 288.08 385.451 288.08H366.888V315.898ZM366.888 273.097H383.303C386.337 273.097 389.03 272.568 391.382 271.511C393.769 270.42 395.644 268.886 397.007 266.909C398.405 264.932 399.104 262.562 399.104 259.801C399.104 256.017 397.757 252.966 395.064 250.648C392.405 248.33 388.621 247.17 383.712 247.17H366.888V273.097ZM557.788 281.636C557.788 293.057 555.623 302.773 551.293 310.784C546.998 318.795 541.134 324.915 533.703 329.142C526.305 333.335 517.987 335.432 508.748 335.432C499.441 335.432 491.089 333.318 483.691 329.091C476.293 324.864 470.447 318.744 466.151 310.733C461.856 302.722 459.708 293.023 459.708 281.636C459.708 270.216 461.856 260.5 466.151 252.489C470.447 244.477 476.293 238.375 483.691 234.182C491.089 229.955 499.441 227.841 508.748 227.841C517.987 227.841 526.305 229.955 533.703 234.182C541.134 238.375 546.998 244.477 551.293 252.489C555.623 260.5 557.788 270.216 557.788 281.636ZM535.339 281.636C535.339 274.239 534.231 268 532.015 262.92C529.833 257.841 526.748 253.989 522.759 251.364C518.771 248.739 514.1 247.426 508.748 247.426C503.396 247.426 498.725 248.739 494.737 251.364C490.748 253.989 487.646 257.841 485.43 262.92C483.248 268 482.157 274.239 482.157 281.636C482.157 289.034 483.248 295.273 485.43 300.352C487.646 305.432 490.748 309.284 494.737 311.909C498.725 314.534 503.396 315.847 508.748 315.847C514.1 315.847 518.771 314.534 522.759 311.909C526.748 309.284 529.833 305.432 532.015 300.352C534.231 295.273 535.339 289.034 535.339 281.636ZM595.79 334V229.273H617.932V275.449H619.312L657 229.273H683.54L644.676 276.165L684 334H657.511L628.824 290.943L617.932 304.239V334H595.79Z" fill="white"/>
<path opacity="0.6" d="M9.10227 528V423.273H50.4205C58.3295 423.273 65.0795 424.687 70.6705 427.517C76.2955 430.312 80.5739 434.284 83.5057 439.432C86.4716 444.545 87.9546 450.562 87.9546 457.483C87.9546 464.437 86.4546 470.42 83.4546 475.432C80.4546 480.409 76.108 484.227 70.4148 486.886C64.7557 489.545 57.9034 490.875 49.858 490.875H22.1932V473.08H46.2784C50.5057 473.08 54.017 472.5 56.8125 471.341C59.608 470.182 61.6875 468.443 63.0511 466.125C64.4489 463.807 65.1477 460.926 65.1477 457.483C65.1477 454.006 64.4489 451.074 63.0511 448.688C61.6875 446.301 59.5909 444.494 56.7614 443.267C53.9659 442.006 50.4375 441.375 46.1761 441.375H31.2443V528H9.10227ZM65.6591 480.341L91.6875 528H67.2443L41.7784 480.341H65.6591ZM125.202 528V423.273H195.77V441.528H147.344V466.483H192.14V484.739H147.344V509.744H195.975V528H125.202ZM234.974 528V423.273H305.542V441.528H257.116V466.483H301.912V484.739H257.116V509.744H305.747V528H234.974ZM344.746 528V423.273H386.678C394.382 423.273 400.809 424.415 405.956 426.699C411.104 428.983 414.973 432.153 417.564 436.21C420.155 440.233 421.451 444.869 421.451 450.119C421.451 454.21 420.632 457.807 418.996 460.909C417.36 463.977 415.11 466.5 412.246 468.477C409.416 470.42 406.178 471.801 402.53 472.619V473.642C406.519 473.812 410.252 474.937 413.729 477.017C417.24 479.097 420.087 482.011 422.269 485.761C424.451 489.477 425.541 493.909 425.541 499.057C425.541 504.614 424.161 509.574 421.399 513.938C418.672 518.267 414.632 521.693 409.28 524.216C403.928 526.739 397.331 528 389.49 528H344.746ZM366.888 509.898H384.939C391.11 509.898 395.61 508.722 398.439 506.369C401.269 503.983 402.684 500.812 402.684 496.858C402.684 493.96 401.985 491.403 400.587 489.188C399.189 486.972 397.195 485.233 394.604 483.972C392.047 482.71 388.996 482.08 385.451 482.08H366.888V509.898ZM366.888 467.097H383.303C386.337 467.097 389.03 466.568 391.382 465.511C393.769 464.42 395.644 462.886 397.007 460.909C398.405 458.932 399.104 456.562 399.104 453.801C399.104 450.017 397.757 446.966 395.064 444.648C392.405 442.33 388.621 441.17 383.712 441.17H366.888V467.097ZM557.788 475.636C557.788 487.057 555.623 496.773 551.293 504.784C546.998 512.795 541.134 518.915 533.703 523.142C526.305 527.335 517.987 529.432 508.748 529.432C499.441 529.432 491.089 527.318 483.691 523.091C476.293 518.864 470.447 512.744 466.151 504.733C461.856 496.722 459.708 487.023 459.708 475.636C459.708 464.216 461.856 454.5 466.151 446.489C470.447 438.477 476.293 432.375 483.691 428.182C491.089 423.955 499.441 421.841 508.748 421.841C517.987 421.841 526.305 423.955 533.703 428.182C541.134 432.375 546.998 438.477 551.293 446.489C555.623 454.5 557.788 464.216 557.788 475.636ZM535.339 475.636C535.339 468.239 534.231 462 532.015 456.92C529.833 451.841 526.748 447.989 522.759 445.364C518.771 442.739 514.1 441.426 508.748 441.426C503.396 441.426 498.725 442.739 494.737 445.364C490.748 447.989 487.646 451.841 485.43 456.92C483.248 462 482.157 468.239 482.157 475.636C482.157 483.034 483.248 489.273 485.43 494.352C487.646 499.432 490.748 503.284 494.737 505.909C498.725 508.534 503.396 509.847 508.748 509.847C514.1 509.847 518.771 508.534 522.759 505.909C526.748 503.284 529.833 499.432 532.015 494.352C534.231 489.273 535.339 483.034 535.339 475.636ZM595.79 528V423.273H617.932V469.449H619.312L657 423.273H683.54L644.676 470.165L684 528H657.511L628.824 484.943L617.932 498.239V528H595.79Z" fill="white"/>
<path opacity="0.7" d="M9.10227 714V609.273H50.4205C58.3295 609.273 65.0795 610.687 70.6705 613.517C76.2955 616.312 80.5739 620.284 83.5057 625.432C86.4716 630.545 87.9546 636.562 87.9546 643.483C87.9546 650.437 86.4546 656.42 83.4546 661.432C80.4546 666.409 76.108 670.227 70.4148 672.886C64.7557 675.545 57.9034 676.875 49.858 676.875H22.1932V659.08H46.2784C50.5057 659.08 54.017 658.5 56.8125 657.341C59.608 656.182 61.6875 654.443 63.0511 652.125C64.4489 649.807 65.1477 646.926 65.1477 643.483C65.1477 640.006 64.4489 637.074 63.0511 634.688C61.6875 632.301 59.5909 630.494 56.7614 629.267C53.9659 628.006 50.4375 627.375 46.1761 627.375H31.2443V714H9.10227ZM65.6591 666.341L91.6875 714H67.2443L41.7784 666.341H65.6591ZM125.202 714V609.273H195.77V627.528H147.344V652.483H192.14V670.739H147.344V695.744H195.975V714H125.202ZM234.974 714V609.273H305.542V627.528H257.116V652.483H301.912V670.739H257.116V695.744H305.747V714H234.974ZM344.746 714V609.273H386.678C394.382 609.273 400.809 610.415 405.956 612.699C411.104 614.983 414.973 618.153 417.564 622.21C420.155 626.233 421.451 630.869 421.451 636.119C421.451 640.21 420.632 643.807 418.996 646.909C417.36 649.977 415.11 652.5 412.246 654.477C409.416 656.42 406.178 657.801 402.53 658.619V659.642C406.519 659.812 410.252 660.937 413.729 663.017C417.24 665.097 420.087 668.011 422.269 671.761C424.451 675.477 425.541 679.909 425.541 685.057C425.541 690.614 424.161 695.574 421.399 699.938C418.672 704.267 414.632 707.693 409.28 710.216C403.928 712.739 397.331 714 389.49 714H344.746ZM366.888 695.898H384.939C391.11 695.898 395.61 694.722 398.439 692.369C401.269 689.983 402.684 686.812 402.684 682.858C402.684 679.96 401.985 677.403 400.587 675.188C399.189 672.972 397.195 671.233 394.604 669.972C392.047 668.71 388.996 668.08 385.451 668.08H366.888V695.898ZM366.888 653.097H383.303C386.337 653.097 389.03 652.568 391.382 651.511C393.769 650.42 395.644 648.886 397.007 646.909C398.405 644.932 399.104 642.562 399.104 639.801C399.104 636.017 397.757 632.966 395.064 630.648C392.405 628.33 388.621 627.17 383.712 627.17H366.888V653.097ZM557.788 661.636C557.788 673.057 555.623 682.773 551.293 690.784C546.998 698.795 541.134 704.915 533.703 709.142C526.305 713.335 517.987 715.432 508.748 715.432C499.441 715.432 491.089 713.318 483.691 709.091C476.293 704.864 470.447 698.744 466.151 690.733C461.856 682.722 459.708 673.023 459.708 661.636C459.708 650.216 461.856 640.5 466.151 632.489C470.447 624.477 476.293 618.375 483.691 614.182C491.089 609.955 499.441 607.841 508.748 607.841C517.987 607.841 526.305 609.955 533.703 614.182C541.134 618.375 546.998 624.477 551.293 632.489C555.623 640.5 557.788 650.216 557.788 661.636ZM535.339 661.636C535.339 654.239 534.231 648 532.015 642.92C529.833 637.841 526.748 633.989 522.759 631.364C518.771 628.739 514.1 627.426 508.748 627.426C503.396 627.426 498.725 628.739 494.737 631.364C490.748 633.989 487.646 637.841 485.43 642.92C483.248 648 482.157 654.239 482.157 661.636C482.157 669.034 483.248 675.273 485.43 680.352C487.646 685.432 490.748 689.284 494.737 691.909C498.725 694.534 503.396 695.847 508.748 695.847C514.1 695.847 518.771 694.534 522.759 691.909C526.748 689.284 529.833 685.432 532.015 680.352C534.231 675.273 535.339 669.034 535.339 661.636ZM595.79 714V609.273H617.932V655.449H619.312L657 609.273H683.54L644.676 656.165L684 714H657.511L628.824 670.943L617.932 684.239V714H595.79Z" fill="white"/>
<path opacity="0.7" d="M9.10227 869V764.273H50.4205C58.3295 764.273 65.0795 765.687 70.6705 768.517C76.2955 771.312 80.5739 775.284 83.5057 780.432C86.4716 785.545 87.9546 791.562 87.9546 798.483C87.9546 805.437 86.4546 811.42 83.4546 816.432C80.4546 821.409 76.108 825.227 70.4148 827.886C64.7557 830.545 57.9034 831.875 49.858 831.875H22.1932V814.08H46.2784C50.5057 814.08 54.017 813.5 56.8125 812.341C59.608 811.182 61.6875 809.443 63.0511 807.125C64.4489 804.807 65.1477 801.926 65.1477 798.483C65.1477 795.006 64.4489 792.074 63.0511 789.688C61.6875 787.301 59.5909 785.494 56.7614 784.267C53.9659 783.006 50.4375 782.375 46.1761 782.375H31.2443V869H9.10227ZM65.6591 821.341L91.6875 869H67.2443L41.7784 821.341H65.6591ZM125.202 869V764.273H195.77V782.528H147.344V807.483H192.14V825.739H147.344V850.744H195.975V869H125.202ZM234.974 869V764.273H305.542V782.528H257.116V807.483H301.912V825.739H257.116V850.744H305.747V869H234.974ZM344.746 869V764.273H386.678C394.382 764.273 400.809 765.415 405.956 767.699C411.104 769.983 414.973 773.153 417.564 777.21C420.155 781.233 421.451 785.869 421.451 791.119C421.451 795.21 420.632 798.807 418.996 801.909C417.36 804.977 415.11 807.5 412.246 809.477C409.416 811.42 406.178 812.801 402.53 813.619V814.642C406.519 814.812 410.252 815.937 413.729 818.017C417.24 820.097 420.087 823.011 422.269 826.761C424.451 830.477 425.541 834.909 425.541 840.057C425.541 845.614 424.161 850.574 421.399 854.938C418.672 859.267 414.632 862.693 409.28 865.216C403.928 867.739 397.331 869 389.49 869H344.746ZM366.888 850.898H384.939C391.11 850.898 395.61 849.722 398.439 847.369C401.269 844.983 402.684 841.812 402.684 837.858C402.684 834.96 401.985 832.403 400.587 830.188C399.189 827.972 397.195 826.233 394.604 824.972C392.047 823.71 388.996 823.08 385.451 823.08H366.888V850.898ZM366.888 808.097H383.303C386.337 808.097 389.03 807.568 391.382 806.511C393.769 805.42 395.644 803.886 397.007 801.909C398.405 799.932 399.104 797.562 399.104 794.801C399.104 791.017 397.757 787.966 395.064 785.648C392.405 783.33 388.621 782.17 383.712 782.17H366.888V808.097ZM557.788 816.636C557.788 828.057 555.623 837.773 551.293 845.784C546.998 853.795 541.134 859.915 533.703 864.142C526.305 868.335 517.987 870.432 508.748 870.432C499.441 870.432 491.089 868.318 483.691 864.091C476.293 859.864 470.447 853.744 466.151 845.733C461.856 837.722 459.708 828.023 459.708 816.636C459.708 805.216 461.856 795.5 466.151 787.489C470.447 779.477 476.293 773.375 483.691 769.182C491.089 764.955 499.441 762.841 508.748 762.841C517.987 762.841 526.305 764.955 533.703 769.182C541.134 773.375 546.998 779.477 551.293 787.489C555.623 795.5 557.788 805.216 557.788 816.636ZM535.339 816.636C535.339 809.239 534.231 803 532.015 797.92C529.833 792.841 526.748 788.989 522.759 786.364C518.771 783.739 514.1 782.426 508.748 782.426C503.396 782.426 498.725 783.739 494.737 786.364C490.748 788.989 487.646 792.841 485.43 797.92C483.248 803 482.157 809.239 482.157 816.636C482.157 824.034 483.248 830.273 485.43 835.352C487.646 840.432 490.748 844.284 494.737 846.909C498.725 849.534 503.396 850.847 508.748 850.847C514.1 850.847 518.771 849.534 522.759 846.909C526.748 844.284 529.833 840.432 532.015 835.352C534.231 830.273 535.339 824.034 535.339 816.636ZM595.79 869V764.273H617.932V810.449H619.312L657 764.273H683.54L644.676 811.165L684 869H657.511L628.824 825.943L617.932 839.239V869H595.79Z" fill="white"/>
</svg>
